Coordinates
version=1
nRows=5
nColumns=42
inDegrees=yes

Units are S.I. units (second, meters, Newtons, ...)
If the header above contains a line with 'inDegrees', this indicates whether rotational values are in degrees (yes) or radians (no).

endheader
time	pelvis_tilt	pelvis_list	pelvis_rotation	pelvis_tx	pelvis_ty	pelvis_tz	hip_flexion_r	hip_adduction_r	hip_rotation_r	knee_angle_r	knee_adduction_r	knee_angle_r_beta	ankle_angle_r	subtalar_angle_r	mtp_angle_r	hip_flexion_l	hip_adduction_l	hip_rotation_l	knee_angle_l	knee_adduction_l	knee_angle_l_beta	ankle_angle_l	subtalar_angle_l	mtp_angle_l	lumbar_extension	lumbar_bending	lumbar_rotation	arm_flex_r	arm_add_r	arm_rot_r	elbow_flex_r	pro_sup_r	wrist_flex_r	wrist_dev_r	arm_flex_l	arm_add_l	arm_rot_l	elbow_flex_l	pro_sup_l	wrist_flex_l	wrist_dev_l
      1.11000000	      0.66254261	     -5.56181633	      3.41282086	      0.54232457	      0.97301954	     -0.23008946	      9.87857236	      8.01705691	     -6.26001130	     14.73337120	     -0.27982761	      0.25714584	      2.67272071	     -3.67998445	     -7.54890439	      4.02985087	     -8.82238933	    -10.64837811	     56.30939061	     -5.72254270	      0.98278427	     -9.99322733	    -17.47612057	     -7.54890439	    -12.28280588	      8.31901154	      3.72427476	     -9.00389740	    -10.52593047	     -8.34161759	     30.86311048	     90.00000001	      0.00000000	      0.00000000	      7.33343559	    -10.38264035	      9.57731872	     48.71163818	     90.00000001	      0.00000000	      0.00000000
      1.12000000	      0.56598941	     -5.17067771	      3.46965672	      0.55623458	      0.97506785	     -0.22952831	      8.50399630	      7.67357333	     -6.09231952	     13.74171886	     -0.16323641	      0.23983824	      3.13263003	     -3.16771447	     -7.54808793	      6.10568783	     -8.40355611	    -11.11599226	     57.33641245	     -6.33154943	      1.00070918	     -8.67595702	    -17.45399683	     -7.54808793	    -12.25841586	      7.85800914	      4.00842413	     -8.51809566	    -10.55737603	     -8.10585893	     31.22390176	     90.00000001	      0.00000000	      0.00000000	      6.80118829	    -10.49008111	      9.50781553	     48.61812592	     90.00000001	      0.00000000	      0.00000000
      1.13000000	      0.39180680	     -4.76400966	      3.49625675	      0.57002460	      0.97682402	     -0.22894817	      7.23014498	      7.30386473	     -5.87047615	     12.75261478	     -0.03775342	      0.22257512	      3.56889331	     -2.68795601	     -7.54724817	      8.20614041	     -7.92677576	    -11.36932553	     58.02581611	     -6.69570468	      1.01274154	     -7.37527609	    -17.16910787	     -7.54724817	    -12.16190240	      7.36322784	      4.30220599	     -8.03455146	    -10.61063270	     -7.77870101	     31.63974305	     90.00000001	      0.00000000	      0.00000000	      6.23358340	    -10.62045482	      9.42180351	     48.52236167	     90.00000001	      0.00000000	      0.00000000
      1.14000000	      0.19670133	     -4.33313851	      3.50514071	      0.58362769	      0.97829997	     -0.22835798	      6.03957699	      6.91756882	     -5.67979687	     11.85599373	      0.04350490	      0.20692613	      3.95287889	     -2.24394495	     -7.54654918	     10.26402968	     -7.37552689	    -11.41361919	     58.38106141	     -6.84053583	      1.01894174	     -6.14818861	    -16.81167775	     -7.54654918	    -12.06968879	      6.83497287	      4.59874072	     -7.52322631	    -10.67831218	     -7.45711034	     32.12802236	     90.00000001	      0.00000000	      0.00000000	      5.66110721	    -10.77677732	      9.34365158	     48.40487462	     90.00000001	      0.00000000	      0.00000000
      1.15000000	     -0.03314321	     -3.95230753	      3.46800225	      0.59725124	      0.97946934	     -0.22766771	      4.81968393	      6.57981520	     -5.10672247	     10.81823713	      0.22786452	      0.18881386	      4.18104515	     -2.37797320	     -7.54415773	     12.26189700	     -6.88406700	    -11.19558418	     58.41733720	     -6.65259084	      1.01957487	     -4.79086396	    -15.76829752	     -7.54415773	    -11.93280941	      6.33915381	      4.88096249	     -7.03308885	    -10.91073377	     -6.41252586	     32.67699327	     90.00000001	      0.00000000	      0.00000000	      5.00135358	    -10.93456078	      9.05799146	     48.32646885	     90.00000001	      0.00000000	      0.00000000
